<mxfile host="app.diagrams.net" modified="2024-04-15T09:10:29.025Z" agent="Mozilla/5.0 (Macintosh; Intel Mac OS X 10_15_7) AppleWebKit/537.36 (KHTML, like Gecko) Chrome/123.0.0.0 Safari/537.36 Edg/123.0.0.0" etag="axc-2K_4N7ZXYQSOw0Br" version="22.1.18" type="github">
  <diagram name="第 1 页" id="irPQp1hTXafkcVXFlGtS">
    <mxGraphModel dx="1466" dy="1103" grid="0" gridSize="10" guides="1" tooltips="1" connect="1" arrows="1" fold="1" page="1" pageScale="1" pageWidth="827" pageHeight="1169" math="0" shadow="0">
      <root>
        <mxCell id="0" />
        <mxCell id="1" parent="0" />
        <mxCell id="TTgSb8qgRL0c0CYrCtpZ-1" value="" style="ellipse;whiteSpace=wrap;html=1;fillColor=#d5e8d4;strokeColor=#82b366;" vertex="1" parent="1">
          <mxGeometry x="27" y="154" width="30" height="30" as="geometry" />
        </mxCell>
        <mxCell id="TTgSb8qgRL0c0CYrCtpZ-2" value="" style="ellipse;whiteSpace=wrap;html=1;fillColor=#d5e8d4;strokeColor=#82b366;" vertex="1" parent="1">
          <mxGeometry x="27" y="274" width="30" height="30" as="geometry" />
        </mxCell>
        <mxCell id="TTgSb8qgRL0c0CYrCtpZ-3" value="" style="ellipse;whiteSpace=wrap;html=1;fillColor=#f8cecc;strokeColor=#b85450;" vertex="1" parent="1">
          <mxGeometry x="27" y="324" width="30" height="30" as="geometry" />
        </mxCell>
        <mxCell id="TTgSb8qgRL0c0CYrCtpZ-4" value="" style="ellipse;whiteSpace=wrap;html=1;fillColor=#d5e8d4;strokeColor=#82b366;" vertex="1" parent="1">
          <mxGeometry x="97" y="209" width="30" height="30" as="geometry" />
        </mxCell>
        <mxCell id="TTgSb8qgRL0c0CYrCtpZ-5" value="" style="ellipse;whiteSpace=wrap;html=1;fillColor=#f8cecc;strokeColor=#b85450;" vertex="1" parent="1">
          <mxGeometry x="97" y="269" width="30" height="30" as="geometry" />
        </mxCell>
        <mxCell id="TTgSb8qgRL0c0CYrCtpZ-52" style="rounded=0;orthogonalLoop=1;jettySize=auto;html=1;exitX=1;exitY=0.5;exitDx=0;exitDy=0;entryX=0;entryY=0.5;entryDx=0;entryDy=0;" edge="1" parent="1" source="TTgSb8qgRL0c0CYrCtpZ-6" target="TTgSb8qgRL0c0CYrCtpZ-50">
          <mxGeometry relative="1" as="geometry" />
        </mxCell>
        <mxCell id="TTgSb8qgRL0c0CYrCtpZ-6" value="" style="ellipse;whiteSpace=wrap;html=1;fillColor=#f8cecc;strokeColor=#b85450;" vertex="1" parent="1">
          <mxGeometry x="167" y="144" width="30" height="30" as="geometry" />
        </mxCell>
        <mxCell id="TTgSb8qgRL0c0CYrCtpZ-53" style="edgeStyle=none;shape=connector;rounded=0;orthogonalLoop=1;jettySize=auto;html=1;exitX=1;exitY=0.5;exitDx=0;exitDy=0;entryX=0;entryY=0.5;entryDx=0;entryDy=0;labelBackgroundColor=default;strokeColor=default;align=center;verticalAlign=middle;fontFamily=Helvetica;fontSize=11;fontColor=default;endArrow=classic;" edge="1" parent="1" source="TTgSb8qgRL0c0CYrCtpZ-7" target="TTgSb8qgRL0c0CYrCtpZ-50">
          <mxGeometry relative="1" as="geometry" />
        </mxCell>
        <mxCell id="TTgSb8qgRL0c0CYrCtpZ-7" value="" style="ellipse;whiteSpace=wrap;html=1;fillColor=#f8cecc;strokeColor=#b85450;" vertex="1" parent="1">
          <mxGeometry x="167" y="239" width="30" height="30" as="geometry" />
        </mxCell>
        <mxCell id="TTgSb8qgRL0c0CYrCtpZ-54" style="edgeStyle=none;shape=connector;rounded=0;orthogonalLoop=1;jettySize=auto;html=1;exitX=1;exitY=0.5;exitDx=0;exitDy=0;entryX=0;entryY=0.5;entryDx=0;entryDy=0;labelBackgroundColor=default;strokeColor=default;align=center;verticalAlign=middle;fontFamily=Helvetica;fontSize=11;fontColor=default;endArrow=classic;" edge="1" parent="1" source="TTgSb8qgRL0c0CYrCtpZ-8" target="TTgSb8qgRL0c0CYrCtpZ-49">
          <mxGeometry relative="1" as="geometry" />
        </mxCell>
        <mxCell id="TTgSb8qgRL0c0CYrCtpZ-55" style="edgeStyle=none;shape=connector;rounded=0;orthogonalLoop=1;jettySize=auto;html=1;exitX=1;exitY=0.5;exitDx=0;exitDy=0;entryX=0;entryY=0.5;entryDx=0;entryDy=0;labelBackgroundColor=default;strokeColor=default;align=center;verticalAlign=middle;fontFamily=Helvetica;fontSize=11;fontColor=default;endArrow=classic;" edge="1" parent="1" source="TTgSb8qgRL0c0CYrCtpZ-8" target="TTgSb8qgRL0c0CYrCtpZ-51">
          <mxGeometry relative="1" as="geometry" />
        </mxCell>
        <mxCell id="TTgSb8qgRL0c0CYrCtpZ-8" value="" style="ellipse;whiteSpace=wrap;html=1;fillColor=#d5e8d4;strokeColor=#82b366;" vertex="1" parent="1">
          <mxGeometry x="167" y="184" width="30" height="30" as="geometry" />
        </mxCell>
        <mxCell id="TTgSb8qgRL0c0CYrCtpZ-9" value="" style="endArrow=classic;html=1;rounded=0;exitX=1;exitY=0.5;exitDx=0;exitDy=0;entryX=0;entryY=0.5;entryDx=0;entryDy=0;" edge="1" parent="1" source="TTgSb8qgRL0c0CYrCtpZ-1" target="TTgSb8qgRL0c0CYrCtpZ-4">
          <mxGeometry width="50" height="50" relative="1" as="geometry">
            <mxPoint x="387" y="394" as="sourcePoint" />
            <mxPoint x="437" y="344" as="targetPoint" />
          </mxGeometry>
        </mxCell>
        <mxCell id="TTgSb8qgRL0c0CYrCtpZ-10" value="" style="endArrow=classic;html=1;rounded=0;exitX=1;exitY=0.5;exitDx=0;exitDy=0;entryX=0;entryY=0.5;entryDx=0;entryDy=0;" edge="1" parent="1" source="TTgSb8qgRL0c0CYrCtpZ-3" target="TTgSb8qgRL0c0CYrCtpZ-5">
          <mxGeometry width="50" height="50" relative="1" as="geometry">
            <mxPoint x="387" y="384" as="sourcePoint" />
            <mxPoint x="437" y="334" as="targetPoint" />
          </mxGeometry>
        </mxCell>
        <mxCell id="TTgSb8qgRL0c0CYrCtpZ-11" value="" style="endArrow=classic;html=1;rounded=0;exitX=1;exitY=0.5;exitDx=0;exitDy=0;entryX=0;entryY=0.5;entryDx=0;entryDy=0;" edge="1" parent="1" source="TTgSb8qgRL0c0CYrCtpZ-2" target="TTgSb8qgRL0c0CYrCtpZ-4">
          <mxGeometry width="50" height="50" relative="1" as="geometry">
            <mxPoint x="387" y="394" as="sourcePoint" />
            <mxPoint x="437" y="344" as="targetPoint" />
          </mxGeometry>
        </mxCell>
        <mxCell id="TTgSb8qgRL0c0CYrCtpZ-12" value="" style="endArrow=classic;html=1;rounded=0;entryX=0;entryY=0.5;entryDx=0;entryDy=0;exitX=1;exitY=0.5;exitDx=0;exitDy=0;" edge="1" parent="1" source="TTgSb8qgRL0c0CYrCtpZ-4" target="TTgSb8qgRL0c0CYrCtpZ-8">
          <mxGeometry width="50" height="50" relative="1" as="geometry">
            <mxPoint x="127" y="189" as="sourcePoint" />
            <mxPoint x="437" y="344" as="targetPoint" />
          </mxGeometry>
        </mxCell>
        <mxCell id="TTgSb8qgRL0c0CYrCtpZ-13" value="" style="endArrow=classic;html=1;rounded=0;exitX=1;exitY=0.5;exitDx=0;exitDy=0;entryX=0;entryY=0.5;entryDx=0;entryDy=0;" edge="1" parent="1" source="TTgSb8qgRL0c0CYrCtpZ-5" target="TTgSb8qgRL0c0CYrCtpZ-7">
          <mxGeometry width="50" height="50" relative="1" as="geometry">
            <mxPoint x="387" y="394" as="sourcePoint" />
            <mxPoint x="437" y="344" as="targetPoint" />
          </mxGeometry>
        </mxCell>
        <mxCell id="TTgSb8qgRL0c0CYrCtpZ-14" value="" style="endArrow=classic;html=1;rounded=0;exitX=1;exitY=0.5;exitDx=0;exitDy=0;entryX=0;entryY=0.5;entryDx=0;entryDy=0;" edge="1" parent="1" source="TTgSb8qgRL0c0CYrCtpZ-5" target="TTgSb8qgRL0c0CYrCtpZ-6">
          <mxGeometry width="50" height="50" relative="1" as="geometry">
            <mxPoint x="137" y="249" as="sourcePoint" />
            <mxPoint x="177" y="219" as="targetPoint" />
          </mxGeometry>
        </mxCell>
        <mxCell id="TTgSb8qgRL0c0CYrCtpZ-29" value="" style="endArrow=none;dashed=1;html=1;dashPattern=1 3;strokeWidth=2;rounded=0;" edge="1" parent="1">
          <mxGeometry width="50" height="50" relative="1" as="geometry">
            <mxPoint x="153" y="586" as="sourcePoint" />
            <mxPoint x="153" y="526" as="targetPoint" />
          </mxGeometry>
        </mxCell>
        <mxCell id="TTgSb8qgRL0c0CYrCtpZ-30" value="" style="ellipse;whiteSpace=wrap;html=1;fillColor=#e1d5e7;strokeColor=#9673a6;" vertex="1" parent="1">
          <mxGeometry x="27" y="370" width="30" height="30" as="geometry" />
        </mxCell>
        <mxCell id="TTgSb8qgRL0c0CYrCtpZ-31" value="" style="ellipse;whiteSpace=wrap;html=1;fillColor=#fff2cc;strokeColor=#d6b656;" vertex="1" parent="1">
          <mxGeometry x="27" y="420" width="30" height="30" as="geometry" />
        </mxCell>
        <mxCell id="TTgSb8qgRL0c0CYrCtpZ-65" style="edgeStyle=none;shape=connector;rounded=0;orthogonalLoop=1;jettySize=auto;html=1;exitX=1;exitY=0.5;exitDx=0;exitDy=0;entryX=0;entryY=0.5;entryDx=0;entryDy=0;labelBackgroundColor=default;strokeColor=default;align=center;verticalAlign=middle;fontFamily=Helvetica;fontSize=11;fontColor=default;endArrow=classic;" edge="1" parent="1" source="TTgSb8qgRL0c0CYrCtpZ-32" target="TTgSb8qgRL0c0CYrCtpZ-37">
          <mxGeometry relative="1" as="geometry" />
        </mxCell>
        <mxCell id="TTgSb8qgRL0c0CYrCtpZ-32" value="" style="ellipse;whiteSpace=wrap;html=1;fillColor=#e1d5e7;strokeColor=#9673a6;" vertex="1" parent="1">
          <mxGeometry x="27" y="470" width="30" height="30" as="geometry" />
        </mxCell>
        <mxCell id="TTgSb8qgRL0c0CYrCtpZ-48" style="rounded=0;orthogonalLoop=1;jettySize=auto;html=1;exitX=1;exitY=0.5;exitDx=0;exitDy=0;entryX=0;entryY=0.5;entryDx=0;entryDy=0;" edge="1" parent="1" source="TTgSb8qgRL0c0CYrCtpZ-33" target="TTgSb8qgRL0c0CYrCtpZ-35">
          <mxGeometry relative="1" as="geometry" />
        </mxCell>
        <mxCell id="TTgSb8qgRL0c0CYrCtpZ-33" value="" style="ellipse;whiteSpace=wrap;html=1;fillColor=#fff2cc;strokeColor=#d6b656;" vertex="1" parent="1">
          <mxGeometry x="97" y="334" width="30" height="30" as="geometry" />
        </mxCell>
        <mxCell id="TTgSb8qgRL0c0CYrCtpZ-34" value="" style="ellipse;whiteSpace=wrap;html=1;fillColor=#e1d5e7;strokeColor=#9673a6;" vertex="1" parent="1">
          <mxGeometry x="97" y="440" width="30" height="30" as="geometry" />
        </mxCell>
        <mxCell id="TTgSb8qgRL0c0CYrCtpZ-60" style="edgeStyle=none;shape=connector;rounded=0;orthogonalLoop=1;jettySize=auto;html=1;exitX=1;exitY=0.5;exitDx=0;exitDy=0;entryX=0;entryY=0.5;entryDx=0;entryDy=0;labelBackgroundColor=default;strokeColor=default;align=center;verticalAlign=middle;fontFamily=Helvetica;fontSize=11;fontColor=default;endArrow=classic;" edge="1" parent="1" source="TTgSb8qgRL0c0CYrCtpZ-35" target="TTgSb8qgRL0c0CYrCtpZ-56">
          <mxGeometry relative="1" as="geometry" />
        </mxCell>
        <mxCell id="TTgSb8qgRL0c0CYrCtpZ-67" style="edgeStyle=none;shape=connector;rounded=0;orthogonalLoop=1;jettySize=auto;html=1;exitX=1;exitY=0.5;exitDx=0;exitDy=0;entryX=0;entryY=0.5;entryDx=0;entryDy=0;labelBackgroundColor=default;strokeColor=default;align=center;verticalAlign=middle;fontFamily=Helvetica;fontSize=11;fontColor=default;endArrow=classic;" edge="1" parent="1" source="TTgSb8qgRL0c0CYrCtpZ-35" target="TTgSb8qgRL0c0CYrCtpZ-59">
          <mxGeometry relative="1" as="geometry" />
        </mxCell>
        <mxCell id="TTgSb8qgRL0c0CYrCtpZ-35" value="" style="ellipse;whiteSpace=wrap;html=1;fillColor=#fff2cc;strokeColor=#d6b656;" vertex="1" parent="1">
          <mxGeometry x="163" y="308" width="30" height="30" as="geometry" />
        </mxCell>
        <mxCell id="TTgSb8qgRL0c0CYrCtpZ-62" style="edgeStyle=none;shape=connector;rounded=0;orthogonalLoop=1;jettySize=auto;html=1;exitX=1;exitY=0.5;exitDx=0;exitDy=0;entryX=0;entryY=0.5;entryDx=0;entryDy=0;labelBackgroundColor=default;strokeColor=default;align=center;verticalAlign=middle;fontFamily=Helvetica;fontSize=11;fontColor=default;endArrow=classic;" edge="1" parent="1" source="TTgSb8qgRL0c0CYrCtpZ-36" target="TTgSb8qgRL0c0CYrCtpZ-58">
          <mxGeometry relative="1" as="geometry" />
        </mxCell>
        <mxCell id="TTgSb8qgRL0c0CYrCtpZ-36" value="" style="ellipse;whiteSpace=wrap;html=1;fillColor=#e1d5e7;strokeColor=#9673a6;" vertex="1" parent="1">
          <mxGeometry x="167" y="382" width="30" height="30" as="geometry" />
        </mxCell>
        <mxCell id="TTgSb8qgRL0c0CYrCtpZ-61" style="edgeStyle=none;shape=connector;rounded=0;orthogonalLoop=1;jettySize=auto;html=1;exitX=1;exitY=0.5;exitDx=0;exitDy=0;entryX=0;entryY=0.5;entryDx=0;entryDy=0;labelBackgroundColor=default;strokeColor=default;align=center;verticalAlign=middle;fontFamily=Helvetica;fontSize=11;fontColor=default;endArrow=classic;" edge="1" parent="1" source="TTgSb8qgRL0c0CYrCtpZ-37" target="TTgSb8qgRL0c0CYrCtpZ-58">
          <mxGeometry relative="1" as="geometry" />
        </mxCell>
        <mxCell id="TTgSb8qgRL0c0CYrCtpZ-37" value="" style="ellipse;whiteSpace=wrap;html=1;fillColor=#e1d5e7;strokeColor=#9673a6;" vertex="1" parent="1">
          <mxGeometry x="167" y="460" width="30" height="30" as="geometry" />
        </mxCell>
        <mxCell id="TTgSb8qgRL0c0CYrCtpZ-38" value="" style="endArrow=classic;html=1;rounded=0;exitX=1;exitY=0.5;exitDx=0;exitDy=0;entryX=0;entryY=0.5;entryDx=0;entryDy=0;" edge="1" parent="1" source="TTgSb8qgRL0c0CYrCtpZ-30" target="TTgSb8qgRL0c0CYrCtpZ-44">
          <mxGeometry width="50" height="50" relative="1" as="geometry">
            <mxPoint x="387" y="610" as="sourcePoint" />
            <mxPoint x="437" y="560" as="targetPoint" />
          </mxGeometry>
        </mxCell>
        <mxCell id="TTgSb8qgRL0c0CYrCtpZ-39" value="" style="endArrow=classic;html=1;rounded=0;exitX=1;exitY=0.5;exitDx=0;exitDy=0;entryX=0;entryY=0.5;entryDx=0;entryDy=0;" edge="1" parent="1" source="TTgSb8qgRL0c0CYrCtpZ-32" target="TTgSb8qgRL0c0CYrCtpZ-34">
          <mxGeometry width="50" height="50" relative="1" as="geometry">
            <mxPoint x="387" y="610" as="sourcePoint" />
            <mxPoint x="437" y="560" as="targetPoint" />
          </mxGeometry>
        </mxCell>
        <mxCell id="TTgSb8qgRL0c0CYrCtpZ-40" value="" style="endArrow=classic;html=1;rounded=0;exitX=1;exitY=0.5;exitDx=0;exitDy=0;entryX=0;entryY=0.5;entryDx=0;entryDy=0;" edge="1" parent="1" source="TTgSb8qgRL0c0CYrCtpZ-31" target="TTgSb8qgRL0c0CYrCtpZ-33">
          <mxGeometry width="50" height="50" relative="1" as="geometry">
            <mxPoint x="387" y="610" as="sourcePoint" />
            <mxPoint x="437" y="560" as="targetPoint" />
          </mxGeometry>
        </mxCell>
        <mxCell id="TTgSb8qgRL0c0CYrCtpZ-41" value="" style="endArrow=classic;html=1;rounded=0;entryX=0;entryY=0.5;entryDx=0;entryDy=0;exitX=1;exitY=0.5;exitDx=0;exitDy=0;" edge="1" parent="1" target="TTgSb8qgRL0c0CYrCtpZ-37" source="TTgSb8qgRL0c0CYrCtpZ-44">
          <mxGeometry width="50" height="50" relative="1" as="geometry">
            <mxPoint x="127" y="405" as="sourcePoint" />
            <mxPoint x="437" y="560" as="targetPoint" />
          </mxGeometry>
        </mxCell>
        <mxCell id="TTgSb8qgRL0c0CYrCtpZ-42" value="" style="endArrow=classic;html=1;rounded=0;exitX=1;exitY=0.5;exitDx=0;exitDy=0;entryX=0;entryY=0.5;entryDx=0;entryDy=0;" edge="1" parent="1" source="TTgSb8qgRL0c0CYrCtpZ-34" target="TTgSb8qgRL0c0CYrCtpZ-36">
          <mxGeometry width="50" height="50" relative="1" as="geometry">
            <mxPoint x="387" y="610" as="sourcePoint" />
            <mxPoint x="437" y="560" as="targetPoint" />
          </mxGeometry>
        </mxCell>
        <mxCell id="TTgSb8qgRL0c0CYrCtpZ-64" style="edgeStyle=none;shape=connector;rounded=0;orthogonalLoop=1;jettySize=auto;html=1;exitX=1;exitY=0.5;exitDx=0;exitDy=0;entryX=0;entryY=0.5;entryDx=0;entryDy=0;labelBackgroundColor=default;strokeColor=default;align=center;verticalAlign=middle;fontFamily=Helvetica;fontSize=11;fontColor=default;endArrow=classic;" edge="1" parent="1" source="TTgSb8qgRL0c0CYrCtpZ-44" target="TTgSb8qgRL0c0CYrCtpZ-57">
          <mxGeometry relative="1" as="geometry" />
        </mxCell>
        <mxCell id="TTgSb8qgRL0c0CYrCtpZ-44" value="" style="ellipse;whiteSpace=wrap;html=1;fillColor=#e1d5e7;strokeColor=#9673a6;" vertex="1" parent="1">
          <mxGeometry x="97" y="397" width="30" height="30" as="geometry" />
        </mxCell>
        <mxCell id="TTgSb8qgRL0c0CYrCtpZ-45" value="" style="endArrow=classic;html=1;rounded=0;exitX=1;exitY=0.5;exitDx=0;exitDy=0;entryX=0;entryY=0.5;entryDx=0;entryDy=0;" edge="1" parent="1" source="TTgSb8qgRL0c0CYrCtpZ-32" target="TTgSb8qgRL0c0CYrCtpZ-44">
          <mxGeometry width="50" height="50" relative="1" as="geometry">
            <mxPoint x="67" y="395" as="sourcePoint" />
            <mxPoint x="107" y="415" as="targetPoint" />
          </mxGeometry>
        </mxCell>
        <mxCell id="TTgSb8qgRL0c0CYrCtpZ-47" style="rounded=0;orthogonalLoop=1;jettySize=auto;html=1;exitX=1;exitY=0.5;exitDx=0;exitDy=0;entryX=0;entryY=0.5;entryDx=0;entryDy=0;" edge="1" parent="1" source="TTgSb8qgRL0c0CYrCtpZ-46" target="TTgSb8qgRL0c0CYrCtpZ-33">
          <mxGeometry relative="1" as="geometry" />
        </mxCell>
        <mxCell id="TTgSb8qgRL0c0CYrCtpZ-46" value="" style="ellipse;whiteSpace=wrap;html=1;fillColor=#fff2cc;strokeColor=#d6b656;" vertex="1" parent="1">
          <mxGeometry x="27" y="219" width="30" height="30" as="geometry" />
        </mxCell>
        <mxCell id="TTgSb8qgRL0c0CYrCtpZ-49" value="" style="ellipse;whiteSpace=wrap;html=1;fillColor=#d5e8d4;strokeColor=#82b366;" vertex="1" parent="1">
          <mxGeometry x="237" y="154" width="30" height="30" as="geometry" />
        </mxCell>
        <mxCell id="TTgSb8qgRL0c0CYrCtpZ-50" value="" style="ellipse;whiteSpace=wrap;html=1;fillColor=#f8cecc;strokeColor=#b85450;" vertex="1" parent="1">
          <mxGeometry x="237" y="204" width="30" height="30" as="geometry" />
        </mxCell>
        <mxCell id="TTgSb8qgRL0c0CYrCtpZ-51" value="" style="ellipse;whiteSpace=wrap;html=1;fillColor=#d5e8d4;strokeColor=#82b366;" vertex="1" parent="1">
          <mxGeometry x="237" y="254" width="30" height="30" as="geometry" />
        </mxCell>
        <mxCell id="TTgSb8qgRL0c0CYrCtpZ-56" value="" style="ellipse;whiteSpace=wrap;html=1;fillColor=#fff2cc;strokeColor=#d6b656;" vertex="1" parent="1">
          <mxGeometry x="237" y="380" width="30" height="30" as="geometry" />
        </mxCell>
        <mxCell id="TTgSb8qgRL0c0CYrCtpZ-57" value="" style="ellipse;whiteSpace=wrap;html=1;fillColor=#e1d5e7;strokeColor=#9673a6;" vertex="1" parent="1">
          <mxGeometry x="237" y="308" width="30" height="30" as="geometry" />
        </mxCell>
        <mxCell id="TTgSb8qgRL0c0CYrCtpZ-58" value="" style="ellipse;whiteSpace=wrap;html=1;fillColor=#e1d5e7;strokeColor=#9673a6;" vertex="1" parent="1">
          <mxGeometry x="237" y="430" width="30" height="30" as="geometry" />
        </mxCell>
        <mxCell id="TTgSb8qgRL0c0CYrCtpZ-59" value="" style="ellipse;whiteSpace=wrap;html=1;fillColor=#fff2cc;strokeColor=#d6b656;" vertex="1" parent="1">
          <mxGeometry x="237" y="480" width="30" height="30" as="geometry" />
        </mxCell>
        <mxCell id="TTgSb8qgRL0c0CYrCtpZ-63" style="edgeStyle=none;shape=connector;rounded=0;orthogonalLoop=1;jettySize=auto;html=1;exitX=1;exitY=0.5;exitDx=0;exitDy=0;labelBackgroundColor=default;strokeColor=default;align=center;verticalAlign=middle;fontFamily=Helvetica;fontSize=11;fontColor=default;endArrow=classic;entryX=0;entryY=0.5;entryDx=0;entryDy=0;" edge="1" parent="1" source="TTgSb8qgRL0c0CYrCtpZ-36" target="TTgSb8qgRL0c0CYrCtpZ-57">
          <mxGeometry relative="1" as="geometry">
            <mxPoint x="234" y="352" as="targetPoint" />
          </mxGeometry>
        </mxCell>
        <mxCell id="TTgSb8qgRL0c0CYrCtpZ-68" value="" style="ellipse;whiteSpace=wrap;html=1;fillColor=#d5e8d4;strokeColor=#82b366;" vertex="1" parent="1">
          <mxGeometry x="390" y="80" width="30" height="30" as="geometry" />
        </mxCell>
        <mxCell id="TTgSb8qgRL0c0CYrCtpZ-69" value="" style="ellipse;whiteSpace=wrap;html=1;fillColor=#d5e8d4;strokeColor=#82b366;" vertex="1" parent="1">
          <mxGeometry x="390" y="130" width="30" height="30" as="geometry" />
        </mxCell>
        <mxCell id="TTgSb8qgRL0c0CYrCtpZ-70" value="" style="ellipse;whiteSpace=wrap;html=1;fillColor=#f8cecc;strokeColor=#b85450;" vertex="1" parent="1">
          <mxGeometry x="390" y="296" width="30" height="30" as="geometry" />
        </mxCell>
        <mxCell id="TTgSb8qgRL0c0CYrCtpZ-71" value="" style="ellipse;whiteSpace=wrap;html=1;fillColor=#d5e8d4;strokeColor=#82b366;" vertex="1" parent="1">
          <mxGeometry x="460" y="100" width="30" height="30" as="geometry" />
        </mxCell>
        <mxCell id="TTgSb8qgRL0c0CYrCtpZ-72" value="" style="ellipse;whiteSpace=wrap;html=1;fillColor=#f8cecc;strokeColor=#b85450;" vertex="1" parent="1">
          <mxGeometry x="460" y="266" width="30" height="30" as="geometry" />
        </mxCell>
        <mxCell id="TTgSb8qgRL0c0CYrCtpZ-73" style="rounded=0;orthogonalLoop=1;jettySize=auto;html=1;exitX=1;exitY=0.5;exitDx=0;exitDy=0;entryX=0;entryY=0.5;entryDx=0;entryDy=0;" edge="1" parent="1" source="TTgSb8qgRL0c0CYrCtpZ-74" target="TTgSb8qgRL0c0CYrCtpZ-87">
          <mxGeometry relative="1" as="geometry" />
        </mxCell>
        <mxCell id="TTgSb8qgRL0c0CYrCtpZ-74" value="" style="ellipse;whiteSpace=wrap;html=1;fillColor=#f8cecc;strokeColor=#b85450;" vertex="1" parent="1">
          <mxGeometry x="530" y="186" width="30" height="30" as="geometry" />
        </mxCell>
        <mxCell id="TTgSb8qgRL0c0CYrCtpZ-75" style="edgeStyle=none;shape=connector;rounded=0;orthogonalLoop=1;jettySize=auto;html=1;exitX=1;exitY=0.5;exitDx=0;exitDy=0;entryX=0;entryY=0.5;entryDx=0;entryDy=0;labelBackgroundColor=default;strokeColor=default;align=center;verticalAlign=middle;fontFamily=Helvetica;fontSize=11;fontColor=default;endArrow=classic;" edge="1" parent="1" source="TTgSb8qgRL0c0CYrCtpZ-76" target="TTgSb8qgRL0c0CYrCtpZ-87">
          <mxGeometry relative="1" as="geometry" />
        </mxCell>
        <mxCell id="TTgSb8qgRL0c0CYrCtpZ-76" value="" style="ellipse;whiteSpace=wrap;html=1;fillColor=#f8cecc;strokeColor=#b85450;" vertex="1" parent="1">
          <mxGeometry x="530" y="236" width="30" height="30" as="geometry" />
        </mxCell>
        <mxCell id="TTgSb8qgRL0c0CYrCtpZ-77" style="edgeStyle=none;shape=connector;rounded=0;orthogonalLoop=1;jettySize=auto;html=1;exitX=1;exitY=0.5;exitDx=0;exitDy=0;entryX=0;entryY=0.5;entryDx=0;entryDy=0;labelBackgroundColor=default;strokeColor=default;align=center;verticalAlign=middle;fontFamily=Helvetica;fontSize=11;fontColor=default;endArrow=classic;" edge="1" parent="1" source="TTgSb8qgRL0c0CYrCtpZ-79" target="TTgSb8qgRL0c0CYrCtpZ-86">
          <mxGeometry relative="1" as="geometry" />
        </mxCell>
        <mxCell id="TTgSb8qgRL0c0CYrCtpZ-78" style="edgeStyle=none;shape=connector;rounded=0;orthogonalLoop=1;jettySize=auto;html=1;exitX=1;exitY=0.5;exitDx=0;exitDy=0;entryX=0;entryY=0.5;entryDx=0;entryDy=0;labelBackgroundColor=default;strokeColor=default;align=center;verticalAlign=middle;fontFamily=Helvetica;fontSize=11;fontColor=default;endArrow=classic;" edge="1" parent="1" source="TTgSb8qgRL0c0CYrCtpZ-79" target="TTgSb8qgRL0c0CYrCtpZ-88">
          <mxGeometry relative="1" as="geometry" />
        </mxCell>
        <mxCell id="TTgSb8qgRL0c0CYrCtpZ-79" value="" style="ellipse;whiteSpace=wrap;html=1;fillColor=#d5e8d4;strokeColor=#82b366;" vertex="1" parent="1">
          <mxGeometry x="530" y="114" width="30" height="30" as="geometry" />
        </mxCell>
        <mxCell id="TTgSb8qgRL0c0CYrCtpZ-80" value="" style="endArrow=classic;html=1;rounded=0;exitX=1;exitY=0.5;exitDx=0;exitDy=0;entryX=0;entryY=0.5;entryDx=0;entryDy=0;" edge="1" parent="1" source="TTgSb8qgRL0c0CYrCtpZ-68" target="TTgSb8qgRL0c0CYrCtpZ-71">
          <mxGeometry width="50" height="50" relative="1" as="geometry">
            <mxPoint x="750" y="320" as="sourcePoint" />
            <mxPoint x="800" y="270" as="targetPoint" />
          </mxGeometry>
        </mxCell>
        <mxCell id="TTgSb8qgRL0c0CYrCtpZ-81" value="" style="endArrow=classic;html=1;rounded=0;exitX=1;exitY=0.5;exitDx=0;exitDy=0;entryX=0;entryY=0.5;entryDx=0;entryDy=0;" edge="1" parent="1" source="TTgSb8qgRL0c0CYrCtpZ-70" target="TTgSb8qgRL0c0CYrCtpZ-72">
          <mxGeometry width="50" height="50" relative="1" as="geometry">
            <mxPoint x="750" y="436" as="sourcePoint" />
            <mxPoint x="800" y="386" as="targetPoint" />
          </mxGeometry>
        </mxCell>
        <mxCell id="TTgSb8qgRL0c0CYrCtpZ-82" value="" style="endArrow=classic;html=1;rounded=0;exitX=1;exitY=0.5;exitDx=0;exitDy=0;entryX=0;entryY=0.5;entryDx=0;entryDy=0;" edge="1" parent="1" source="TTgSb8qgRL0c0CYrCtpZ-69" target="TTgSb8qgRL0c0CYrCtpZ-71">
          <mxGeometry width="50" height="50" relative="1" as="geometry">
            <mxPoint x="750" y="320" as="sourcePoint" />
            <mxPoint x="800" y="270" as="targetPoint" />
          </mxGeometry>
        </mxCell>
        <mxCell id="TTgSb8qgRL0c0CYrCtpZ-83" value="" style="endArrow=classic;html=1;rounded=0;entryX=0;entryY=0.5;entryDx=0;entryDy=0;" edge="1" parent="1" target="TTgSb8qgRL0c0CYrCtpZ-79">
          <mxGeometry width="50" height="50" relative="1" as="geometry">
            <mxPoint x="490" y="115" as="sourcePoint" />
            <mxPoint x="800" y="270" as="targetPoint" />
          </mxGeometry>
        </mxCell>
        <mxCell id="TTgSb8qgRL0c0CYrCtpZ-84" value="" style="endArrow=classic;html=1;rounded=0;exitX=1;exitY=0.5;exitDx=0;exitDy=0;entryX=0;entryY=0.5;entryDx=0;entryDy=0;" edge="1" parent="1" source="TTgSb8qgRL0c0CYrCtpZ-72" target="TTgSb8qgRL0c0CYrCtpZ-76">
          <mxGeometry width="50" height="50" relative="1" as="geometry">
            <mxPoint x="750" y="436" as="sourcePoint" />
            <mxPoint x="800" y="386" as="targetPoint" />
          </mxGeometry>
        </mxCell>
        <mxCell id="TTgSb8qgRL0c0CYrCtpZ-85" value="" style="endArrow=classic;html=1;rounded=0;exitX=1;exitY=0.5;exitDx=0;exitDy=0;entryX=0;entryY=0.5;entryDx=0;entryDy=0;" edge="1" parent="1" source="TTgSb8qgRL0c0CYrCtpZ-72" target="TTgSb8qgRL0c0CYrCtpZ-74">
          <mxGeometry width="50" height="50" relative="1" as="geometry">
            <mxPoint x="500" y="291" as="sourcePoint" />
            <mxPoint x="540" y="261" as="targetPoint" />
          </mxGeometry>
        </mxCell>
        <mxCell id="TTgSb8qgRL0c0CYrCtpZ-86" value="" style="ellipse;whiteSpace=wrap;html=1;fillColor=#d5e8d4;strokeColor=#82b366;" vertex="1" parent="1">
          <mxGeometry x="600" y="80" width="30" height="30" as="geometry" />
        </mxCell>
        <mxCell id="TTgSb8qgRL0c0CYrCtpZ-87" value="" style="ellipse;whiteSpace=wrap;html=1;fillColor=#f8cecc;strokeColor=#b85450;" vertex="1" parent="1">
          <mxGeometry x="600" y="246" width="30" height="30" as="geometry" />
        </mxCell>
        <mxCell id="TTgSb8qgRL0c0CYrCtpZ-88" value="" style="ellipse;whiteSpace=wrap;html=1;fillColor=#d5e8d4;strokeColor=#82b366;" vertex="1" parent="1">
          <mxGeometry x="600" y="180" width="30" height="30" as="geometry" />
        </mxCell>
        <mxCell id="TTgSb8qgRL0c0CYrCtpZ-89" value="" style="ellipse;whiteSpace=wrap;html=1;fillColor=#e1d5e7;strokeColor=#9673a6;" vertex="1" parent="1">
          <mxGeometry x="390" y="374" width="30" height="30" as="geometry" />
        </mxCell>
        <mxCell id="TTgSb8qgRL0c0CYrCtpZ-90" value="" style="ellipse;whiteSpace=wrap;html=1;fillColor=#fff2cc;strokeColor=#d6b656;" vertex="1" parent="1">
          <mxGeometry x="390" y="545" width="30" height="30" as="geometry" />
        </mxCell>
        <mxCell id="TTgSb8qgRL0c0CYrCtpZ-91" style="edgeStyle=none;shape=connector;rounded=0;orthogonalLoop=1;jettySize=auto;html=1;exitX=1;exitY=0.5;exitDx=0;exitDy=0;entryX=0;entryY=0.5;entryDx=0;entryDy=0;labelBackgroundColor=default;strokeColor=default;align=center;verticalAlign=middle;fontFamily=Helvetica;fontSize=11;fontColor=default;endArrow=classic;" edge="1" parent="1" source="TTgSb8qgRL0c0CYrCtpZ-92" target="TTgSb8qgRL0c0CYrCtpZ-102">
          <mxGeometry relative="1" as="geometry" />
        </mxCell>
        <mxCell id="TTgSb8qgRL0c0CYrCtpZ-92" value="" style="ellipse;whiteSpace=wrap;html=1;fillColor=#e1d5e7;strokeColor=#9673a6;" vertex="1" parent="1">
          <mxGeometry x="390" y="439" width="30" height="30" as="geometry" />
        </mxCell>
        <mxCell id="TTgSb8qgRL0c0CYrCtpZ-93" style="rounded=0;orthogonalLoop=1;jettySize=auto;html=1;exitX=1;exitY=0.5;exitDx=0;exitDy=0;entryX=0;entryY=0.5;entryDx=0;entryDy=0;" edge="1" parent="1" source="TTgSb8qgRL0c0CYrCtpZ-94" target="TTgSb8qgRL0c0CYrCtpZ-98">
          <mxGeometry relative="1" as="geometry" />
        </mxCell>
        <mxCell id="TTgSb8qgRL0c0CYrCtpZ-94" value="" style="ellipse;whiteSpace=wrap;html=1;fillColor=#fff2cc;strokeColor=#d6b656;" vertex="1" parent="1">
          <mxGeometry x="460" y="503" width="30" height="30" as="geometry" />
        </mxCell>
        <mxCell id="TTgSb8qgRL0c0CYrCtpZ-95" value="" style="ellipse;whiteSpace=wrap;html=1;fillColor=#e1d5e7;strokeColor=#9673a6;" vertex="1" parent="1">
          <mxGeometry x="460" y="409" width="30" height="30" as="geometry" />
        </mxCell>
        <mxCell id="TTgSb8qgRL0c0CYrCtpZ-96" style="edgeStyle=none;shape=connector;rounded=0;orthogonalLoop=1;jettySize=auto;html=1;exitX=1;exitY=0.5;exitDx=0;exitDy=0;entryX=0;entryY=0.5;entryDx=0;entryDy=0;labelBackgroundColor=default;strokeColor=default;align=center;verticalAlign=middle;fontFamily=Helvetica;fontSize=11;fontColor=default;endArrow=classic;" edge="1" parent="1" source="TTgSb8qgRL0c0CYrCtpZ-98" target="TTgSb8qgRL0c0CYrCtpZ-113">
          <mxGeometry relative="1" as="geometry" />
        </mxCell>
        <mxCell id="TTgSb8qgRL0c0CYrCtpZ-97" style="edgeStyle=none;shape=connector;rounded=0;orthogonalLoop=1;jettySize=auto;html=1;exitX=1;exitY=0.5;exitDx=0;exitDy=0;entryX=0;entryY=0.5;entryDx=0;entryDy=0;labelBackgroundColor=default;strokeColor=default;align=center;verticalAlign=middle;fontFamily=Helvetica;fontSize=11;fontColor=default;endArrow=classic;" edge="1" parent="1" source="TTgSb8qgRL0c0CYrCtpZ-98" target="TTgSb8qgRL0c0CYrCtpZ-116">
          <mxGeometry relative="1" as="geometry" />
        </mxCell>
        <mxCell id="TTgSb8qgRL0c0CYrCtpZ-98" value="" style="ellipse;whiteSpace=wrap;html=1;fillColor=#fff2cc;strokeColor=#d6b656;" vertex="1" parent="1">
          <mxGeometry x="530" y="503" width="30" height="30" as="geometry" />
        </mxCell>
        <mxCell id="TTgSb8qgRL0c0CYrCtpZ-99" style="edgeStyle=none;shape=connector;rounded=0;orthogonalLoop=1;jettySize=auto;html=1;exitX=1;exitY=0.5;exitDx=0;exitDy=0;entryX=0;entryY=0.5;entryDx=0;entryDy=0;labelBackgroundColor=default;strokeColor=default;align=center;verticalAlign=middle;fontFamily=Helvetica;fontSize=11;fontColor=default;endArrow=classic;" edge="1" parent="1" source="TTgSb8qgRL0c0CYrCtpZ-100" target="TTgSb8qgRL0c0CYrCtpZ-115">
          <mxGeometry relative="1" as="geometry" />
        </mxCell>
        <mxCell id="TTgSb8qgRL0c0CYrCtpZ-100" value="" style="ellipse;whiteSpace=wrap;html=1;fillColor=#e1d5e7;strokeColor=#9673a6;" vertex="1" parent="1">
          <mxGeometry x="530" y="379" width="30" height="30" as="geometry" />
        </mxCell>
        <mxCell id="TTgSb8qgRL0c0CYrCtpZ-101" style="edgeStyle=none;shape=connector;rounded=0;orthogonalLoop=1;jettySize=auto;html=1;exitX=1;exitY=0.5;exitDx=0;exitDy=0;entryX=0;entryY=0.5;entryDx=0;entryDy=0;labelBackgroundColor=default;strokeColor=default;align=center;verticalAlign=middle;fontFamily=Helvetica;fontSize=11;fontColor=default;endArrow=classic;" edge="1" parent="1" source="TTgSb8qgRL0c0CYrCtpZ-102" target="TTgSb8qgRL0c0CYrCtpZ-115">
          <mxGeometry relative="1" as="geometry" />
        </mxCell>
        <mxCell id="TTgSb8qgRL0c0CYrCtpZ-102" value="" style="ellipse;whiteSpace=wrap;html=1;fillColor=#e1d5e7;strokeColor=#9673a6;" vertex="1" parent="1">
          <mxGeometry x="530" y="429" width="30" height="30" as="geometry" />
        </mxCell>
        <mxCell id="TTgSb8qgRL0c0CYrCtpZ-103" value="" style="endArrow=classic;html=1;rounded=0;exitX=1;exitY=0.5;exitDx=0;exitDy=0;entryX=0;entryY=0.5;entryDx=0;entryDy=0;" edge="1" parent="1" source="TTgSb8qgRL0c0CYrCtpZ-89" target="TTgSb8qgRL0c0CYrCtpZ-109">
          <mxGeometry width="50" height="50" relative="1" as="geometry">
            <mxPoint x="750" y="614" as="sourcePoint" />
            <mxPoint x="800" y="564" as="targetPoint" />
          </mxGeometry>
        </mxCell>
        <mxCell id="TTgSb8qgRL0c0CYrCtpZ-104" value="" style="endArrow=classic;html=1;rounded=0;exitX=1;exitY=0.5;exitDx=0;exitDy=0;entryX=0;entryY=0.5;entryDx=0;entryDy=0;" edge="1" parent="1" source="TTgSb8qgRL0c0CYrCtpZ-92" target="TTgSb8qgRL0c0CYrCtpZ-95">
          <mxGeometry width="50" height="50" relative="1" as="geometry">
            <mxPoint x="750" y="579" as="sourcePoint" />
            <mxPoint x="800" y="529" as="targetPoint" />
          </mxGeometry>
        </mxCell>
        <mxCell id="TTgSb8qgRL0c0CYrCtpZ-105" value="" style="endArrow=classic;html=1;rounded=0;exitX=1;exitY=0.5;exitDx=0;exitDy=0;entryX=0;entryY=0.5;entryDx=0;entryDy=0;" edge="1" parent="1" source="TTgSb8qgRL0c0CYrCtpZ-90" target="TTgSb8qgRL0c0CYrCtpZ-94">
          <mxGeometry width="50" height="50" relative="1" as="geometry">
            <mxPoint x="750" y="779" as="sourcePoint" />
            <mxPoint x="800" y="729" as="targetPoint" />
          </mxGeometry>
        </mxCell>
        <mxCell id="TTgSb8qgRL0c0CYrCtpZ-106" value="" style="endArrow=classic;html=1;rounded=0;entryX=0;entryY=0.5;entryDx=0;entryDy=0;exitX=1;exitY=0.5;exitDx=0;exitDy=0;" edge="1" parent="1" source="TTgSb8qgRL0c0CYrCtpZ-109" target="TTgSb8qgRL0c0CYrCtpZ-102">
          <mxGeometry width="50" height="50" relative="1" as="geometry">
            <mxPoint x="490" y="409" as="sourcePoint" />
            <mxPoint x="800" y="564" as="targetPoint" />
          </mxGeometry>
        </mxCell>
        <mxCell id="TTgSb8qgRL0c0CYrCtpZ-107" value="" style="endArrow=classic;html=1;rounded=0;exitX=1;exitY=0.5;exitDx=0;exitDy=0;entryX=0;entryY=0.5;entryDx=0;entryDy=0;" edge="1" parent="1" source="TTgSb8qgRL0c0CYrCtpZ-95" target="TTgSb8qgRL0c0CYrCtpZ-100">
          <mxGeometry width="50" height="50" relative="1" as="geometry">
            <mxPoint x="750" y="579" as="sourcePoint" />
            <mxPoint x="800" y="529" as="targetPoint" />
          </mxGeometry>
        </mxCell>
        <mxCell id="TTgSb8qgRL0c0CYrCtpZ-108" style="edgeStyle=none;shape=connector;rounded=0;orthogonalLoop=1;jettySize=auto;html=1;exitX=1;exitY=0.5;exitDx=0;exitDy=0;entryX=0;entryY=0.5;entryDx=0;entryDy=0;labelBackgroundColor=default;strokeColor=default;align=center;verticalAlign=middle;fontFamily=Helvetica;fontSize=11;fontColor=default;endArrow=classic;" edge="1" parent="1" source="TTgSb8qgRL0c0CYrCtpZ-109" target="TTgSb8qgRL0c0CYrCtpZ-114">
          <mxGeometry relative="1" as="geometry" />
        </mxCell>
        <mxCell id="TTgSb8qgRL0c0CYrCtpZ-109" value="" style="ellipse;whiteSpace=wrap;html=1;fillColor=#e1d5e7;strokeColor=#9673a6;" vertex="1" parent="1">
          <mxGeometry x="460" y="344" width="30" height="30" as="geometry" />
        </mxCell>
        <mxCell id="TTgSb8qgRL0c0CYrCtpZ-110" value="" style="endArrow=classic;html=1;rounded=0;exitX=1;exitY=0.5;exitDx=0;exitDy=0;entryX=0;entryY=0.5;entryDx=0;entryDy=0;" edge="1" parent="1" source="TTgSb8qgRL0c0CYrCtpZ-92" target="TTgSb8qgRL0c0CYrCtpZ-109">
          <mxGeometry width="50" height="50" relative="1" as="geometry">
            <mxPoint x="430" y="399" as="sourcePoint" />
            <mxPoint x="470" y="419" as="targetPoint" />
          </mxGeometry>
        </mxCell>
        <mxCell id="TTgSb8qgRL0c0CYrCtpZ-111" style="rounded=0;orthogonalLoop=1;jettySize=auto;html=1;exitX=1;exitY=0.5;exitDx=0;exitDy=0;entryX=0;entryY=0.5;entryDx=0;entryDy=0;" edge="1" parent="1" source="TTgSb8qgRL0c0CYrCtpZ-112" target="TTgSb8qgRL0c0CYrCtpZ-94">
          <mxGeometry relative="1" as="geometry" />
        </mxCell>
        <mxCell id="TTgSb8qgRL0c0CYrCtpZ-112" value="" style="ellipse;whiteSpace=wrap;html=1;fillColor=#fff2cc;strokeColor=#d6b656;" vertex="1" parent="1">
          <mxGeometry x="390" y="489" width="30" height="30" as="geometry" />
        </mxCell>
        <mxCell id="TTgSb8qgRL0c0CYrCtpZ-113" value="" style="ellipse;whiteSpace=wrap;html=1;fillColor=#fff2cc;strokeColor=#d6b656;" vertex="1" parent="1">
          <mxGeometry x="600" y="493" width="30" height="30" as="geometry" />
        </mxCell>
        <mxCell id="TTgSb8qgRL0c0CYrCtpZ-114" value="" style="ellipse;whiteSpace=wrap;html=1;fillColor=#e1d5e7;strokeColor=#9673a6;" vertex="1" parent="1">
          <mxGeometry x="600" y="334" width="30" height="30" as="geometry" />
        </mxCell>
        <mxCell id="TTgSb8qgRL0c0CYrCtpZ-115" value="" style="ellipse;whiteSpace=wrap;html=1;fillColor=#e1d5e7;strokeColor=#9673a6;" vertex="1" parent="1">
          <mxGeometry x="600" y="399" width="30" height="30" as="geometry" />
        </mxCell>
        <mxCell id="TTgSb8qgRL0c0CYrCtpZ-116" value="" style="ellipse;whiteSpace=wrap;html=1;fillColor=#fff2cc;strokeColor=#d6b656;" vertex="1" parent="1">
          <mxGeometry x="600" y="543" width="30" height="30" as="geometry" />
        </mxCell>
        <mxCell id="TTgSb8qgRL0c0CYrCtpZ-117" style="edgeStyle=none;shape=connector;rounded=0;orthogonalLoop=1;jettySize=auto;html=1;exitX=1;exitY=0.5;exitDx=0;exitDy=0;labelBackgroundColor=default;strokeColor=default;align=center;verticalAlign=middle;fontFamily=Helvetica;fontSize=11;fontColor=default;endArrow=classic;entryX=0;entryY=0.5;entryDx=0;entryDy=0;" edge="1" parent="1" source="TTgSb8qgRL0c0CYrCtpZ-100" target="TTgSb8qgRL0c0CYrCtpZ-114">
          <mxGeometry relative="1" as="geometry">
            <mxPoint x="597" y="356" as="targetPoint" />
          </mxGeometry>
        </mxCell>
        <mxCell id="TTgSb8qgRL0c0CYrCtpZ-118" value="" style="endArrow=none;dashed=1;html=1;dashPattern=1 3;strokeWidth=2;rounded=0;" edge="1" parent="1">
          <mxGeometry width="50" height="50" relative="1" as="geometry">
            <mxPoint x="517" y="627" as="sourcePoint" />
            <mxPoint x="517" y="567" as="targetPoint" />
          </mxGeometry>
        </mxCell>
        <mxCell id="TTgSb8qgRL0c0CYrCtpZ-122" value="" style="ellipse;whiteSpace=wrap;html=1;fillColor=#d5e8d4;strokeColor=#82b366;" vertex="1" parent="1">
          <mxGeometry x="851" y="85.5" width="30" height="30" as="geometry" />
        </mxCell>
        <mxCell id="TTgSb8qgRL0c0CYrCtpZ-123" value="" style="ellipse;whiteSpace=wrap;html=1;fillColor=#d5e8d4;strokeColor=#82b366;" vertex="1" parent="1">
          <mxGeometry x="851" y="135.5" width="30" height="30" as="geometry" />
        </mxCell>
        <mxCell id="TTgSb8qgRL0c0CYrCtpZ-124" value="" style="ellipse;whiteSpace=wrap;html=1;fillColor=#f8cecc;strokeColor=#b85450;" vertex="1" parent="1">
          <mxGeometry x="851" y="551" width="30" height="30" as="geometry" />
        </mxCell>
        <mxCell id="TTgSb8qgRL0c0CYrCtpZ-125" value="" style="ellipse;whiteSpace=wrap;html=1;fillColor=#d5e8d4;strokeColor=#82b366;" vertex="1" parent="1">
          <mxGeometry x="921" y="105.5" width="30" height="30" as="geometry" />
        </mxCell>
        <mxCell id="TTgSb8qgRL0c0CYrCtpZ-126" value="" style="ellipse;whiteSpace=wrap;html=1;fillColor=#f8cecc;strokeColor=#b85450;" vertex="1" parent="1">
          <mxGeometry x="921" y="521" width="30" height="30" as="geometry" />
        </mxCell>
        <mxCell id="TTgSb8qgRL0c0CYrCtpZ-127" style="rounded=0;orthogonalLoop=1;jettySize=auto;html=1;exitX=1;exitY=0.5;exitDx=0;exitDy=0;entryX=0;entryY=0.5;entryDx=0;entryDy=0;" edge="1" parent="1" source="TTgSb8qgRL0c0CYrCtpZ-128" target="TTgSb8qgRL0c0CYrCtpZ-141">
          <mxGeometry relative="1" as="geometry" />
        </mxCell>
        <mxCell id="TTgSb8qgRL0c0CYrCtpZ-128" value="" style="ellipse;whiteSpace=wrap;html=1;fillColor=#f8cecc;strokeColor=#b85450;" vertex="1" parent="1">
          <mxGeometry x="991" y="441" width="30" height="30" as="geometry" />
        </mxCell>
        <mxCell id="TTgSb8qgRL0c0CYrCtpZ-129" style="edgeStyle=none;shape=connector;rounded=0;orthogonalLoop=1;jettySize=auto;html=1;exitX=1;exitY=0.5;exitDx=0;exitDy=0;entryX=0;entryY=0.5;entryDx=0;entryDy=0;labelBackgroundColor=default;strokeColor=default;align=center;verticalAlign=middle;fontFamily=Helvetica;fontSize=11;fontColor=default;endArrow=classic;" edge="1" parent="1" source="TTgSb8qgRL0c0CYrCtpZ-130" target="TTgSb8qgRL0c0CYrCtpZ-141">
          <mxGeometry relative="1" as="geometry" />
        </mxCell>
        <mxCell id="TTgSb8qgRL0c0CYrCtpZ-130" value="" style="ellipse;whiteSpace=wrap;html=1;fillColor=#f8cecc;strokeColor=#b85450;" vertex="1" parent="1">
          <mxGeometry x="991" y="491" width="30" height="30" as="geometry" />
        </mxCell>
        <mxCell id="TTgSb8qgRL0c0CYrCtpZ-131" style="edgeStyle=none;shape=connector;rounded=0;orthogonalLoop=1;jettySize=auto;html=1;exitX=1;exitY=0.5;exitDx=0;exitDy=0;entryX=0;entryY=0.5;entryDx=0;entryDy=0;labelBackgroundColor=default;strokeColor=default;align=center;verticalAlign=middle;fontFamily=Helvetica;fontSize=11;fontColor=default;endArrow=classic;" edge="1" parent="1" source="TTgSb8qgRL0c0CYrCtpZ-133" target="TTgSb8qgRL0c0CYrCtpZ-140">
          <mxGeometry relative="1" as="geometry" />
        </mxCell>
        <mxCell id="TTgSb8qgRL0c0CYrCtpZ-132" style="edgeStyle=none;shape=connector;rounded=0;orthogonalLoop=1;jettySize=auto;html=1;exitX=1;exitY=0.5;exitDx=0;exitDy=0;entryX=0;entryY=0.5;entryDx=0;entryDy=0;labelBackgroundColor=default;strokeColor=default;align=center;verticalAlign=middle;fontFamily=Helvetica;fontSize=11;fontColor=default;endArrow=classic;" edge="1" parent="1" source="TTgSb8qgRL0c0CYrCtpZ-133" target="TTgSb8qgRL0c0CYrCtpZ-142">
          <mxGeometry relative="1" as="geometry" />
        </mxCell>
        <mxCell id="TTgSb8qgRL0c0CYrCtpZ-133" value="" style="ellipse;whiteSpace=wrap;html=1;fillColor=#d5e8d4;strokeColor=#82b366;" vertex="1" parent="1">
          <mxGeometry x="991" y="119.5" width="30" height="30" as="geometry" />
        </mxCell>
        <mxCell id="TTgSb8qgRL0c0CYrCtpZ-134" value="" style="endArrow=classic;html=1;rounded=0;exitX=1;exitY=0.5;exitDx=0;exitDy=0;entryX=0;entryY=0.5;entryDx=0;entryDy=0;" edge="1" parent="1" source="TTgSb8qgRL0c0CYrCtpZ-122" target="TTgSb8qgRL0c0CYrCtpZ-125">
          <mxGeometry width="50" height="50" relative="1" as="geometry">
            <mxPoint x="1211" y="325.5" as="sourcePoint" />
            <mxPoint x="1261" y="275.5" as="targetPoint" />
          </mxGeometry>
        </mxCell>
        <mxCell id="TTgSb8qgRL0c0CYrCtpZ-135" value="" style="endArrow=classic;html=1;rounded=0;exitX=1;exitY=0.5;exitDx=0;exitDy=0;entryX=0;entryY=0.5;entryDx=0;entryDy=0;" edge="1" parent="1" source="TTgSb8qgRL0c0CYrCtpZ-124" target="TTgSb8qgRL0c0CYrCtpZ-126">
          <mxGeometry width="50" height="50" relative="1" as="geometry">
            <mxPoint x="1211" y="691" as="sourcePoint" />
            <mxPoint x="1261" y="641" as="targetPoint" />
          </mxGeometry>
        </mxCell>
        <mxCell id="TTgSb8qgRL0c0CYrCtpZ-136" value="" style="endArrow=classic;html=1;rounded=0;exitX=1;exitY=0.5;exitDx=0;exitDy=0;entryX=0;entryY=0.5;entryDx=0;entryDy=0;" edge="1" parent="1" source="TTgSb8qgRL0c0CYrCtpZ-123" target="TTgSb8qgRL0c0CYrCtpZ-125">
          <mxGeometry width="50" height="50" relative="1" as="geometry">
            <mxPoint x="1211" y="325.5" as="sourcePoint" />
            <mxPoint x="1261" y="275.5" as="targetPoint" />
          </mxGeometry>
        </mxCell>
        <mxCell id="TTgSb8qgRL0c0CYrCtpZ-137" value="" style="endArrow=classic;html=1;rounded=0;entryX=0;entryY=0.5;entryDx=0;entryDy=0;" edge="1" parent="1" target="TTgSb8qgRL0c0CYrCtpZ-133">
          <mxGeometry width="50" height="50" relative="1" as="geometry">
            <mxPoint x="951" y="120.5" as="sourcePoint" />
            <mxPoint x="1261" y="275.5" as="targetPoint" />
          </mxGeometry>
        </mxCell>
        <mxCell id="TTgSb8qgRL0c0CYrCtpZ-138" value="" style="endArrow=classic;html=1;rounded=0;exitX=1;exitY=0.5;exitDx=0;exitDy=0;entryX=0;entryY=0.5;entryDx=0;entryDy=0;" edge="1" parent="1" source="TTgSb8qgRL0c0CYrCtpZ-126" target="TTgSb8qgRL0c0CYrCtpZ-130">
          <mxGeometry width="50" height="50" relative="1" as="geometry">
            <mxPoint x="1211" y="691" as="sourcePoint" />
            <mxPoint x="1261" y="641" as="targetPoint" />
          </mxGeometry>
        </mxCell>
        <mxCell id="TTgSb8qgRL0c0CYrCtpZ-139" value="" style="endArrow=classic;html=1;rounded=0;exitX=1;exitY=0.5;exitDx=0;exitDy=0;entryX=0;entryY=0.5;entryDx=0;entryDy=0;" edge="1" parent="1" source="TTgSb8qgRL0c0CYrCtpZ-126" target="TTgSb8qgRL0c0CYrCtpZ-128">
          <mxGeometry width="50" height="50" relative="1" as="geometry">
            <mxPoint x="961" y="546" as="sourcePoint" />
            <mxPoint x="1001" y="516" as="targetPoint" />
          </mxGeometry>
        </mxCell>
        <mxCell id="TTgSb8qgRL0c0CYrCtpZ-140" value="" style="ellipse;whiteSpace=wrap;html=1;fillColor=#d5e8d4;strokeColor=#82b366;" vertex="1" parent="1">
          <mxGeometry x="1061" y="85.5" width="30" height="30" as="geometry" />
        </mxCell>
        <mxCell id="TTgSb8qgRL0c0CYrCtpZ-141" value="" style="ellipse;whiteSpace=wrap;html=1;fillColor=#f8cecc;strokeColor=#b85450;" vertex="1" parent="1">
          <mxGeometry x="1061" y="501" width="30" height="30" as="geometry" />
        </mxCell>
        <mxCell id="TTgSb8qgRL0c0CYrCtpZ-142" value="" style="ellipse;whiteSpace=wrap;html=1;fillColor=#d5e8d4;strokeColor=#82b366;" vertex="1" parent="1">
          <mxGeometry x="1063" y="156" width="30" height="30" as="geometry" />
        </mxCell>
        <mxCell id="TTgSb8qgRL0c0CYrCtpZ-143" value="" style="ellipse;whiteSpace=wrap;html=1;fillColor=#e1d5e7;strokeColor=#9673a6;" vertex="1" parent="1">
          <mxGeometry x="851" y="342.5" width="30" height="30" as="geometry" />
        </mxCell>
        <mxCell id="TTgSb8qgRL0c0CYrCtpZ-144" value="" style="ellipse;whiteSpace=wrap;html=1;fillColor=#fff2cc;strokeColor=#d6b656;" vertex="1" parent="1">
          <mxGeometry x="851" y="253" width="30" height="30" as="geometry" />
        </mxCell>
        <mxCell id="TTgSb8qgRL0c0CYrCtpZ-145" style="edgeStyle=none;shape=connector;rounded=0;orthogonalLoop=1;jettySize=auto;html=1;exitX=1;exitY=0.5;exitDx=0;exitDy=0;entryX=0;entryY=0.5;entryDx=0;entryDy=0;labelBackgroundColor=default;strokeColor=default;align=center;verticalAlign=middle;fontFamily=Helvetica;fontSize=11;fontColor=default;endArrow=classic;" edge="1" parent="1" source="TTgSb8qgRL0c0CYrCtpZ-146" target="TTgSb8qgRL0c0CYrCtpZ-156">
          <mxGeometry relative="1" as="geometry" />
        </mxCell>
        <mxCell id="TTgSb8qgRL0c0CYrCtpZ-146" value="" style="ellipse;whiteSpace=wrap;html=1;fillColor=#e1d5e7;strokeColor=#9673a6;" vertex="1" parent="1">
          <mxGeometry x="851" y="407.5" width="30" height="30" as="geometry" />
        </mxCell>
        <mxCell id="TTgSb8qgRL0c0CYrCtpZ-147" style="rounded=0;orthogonalLoop=1;jettySize=auto;html=1;exitX=1;exitY=0.5;exitDx=0;exitDy=0;entryX=0;entryY=0.5;entryDx=0;entryDy=0;" edge="1" parent="1" source="TTgSb8qgRL0c0CYrCtpZ-148" target="TTgSb8qgRL0c0CYrCtpZ-152">
          <mxGeometry relative="1" as="geometry" />
        </mxCell>
        <mxCell id="TTgSb8qgRL0c0CYrCtpZ-148" value="" style="ellipse;whiteSpace=wrap;html=1;fillColor=#fff2cc;strokeColor=#d6b656;" vertex="1" parent="1">
          <mxGeometry x="921" y="211" width="30" height="30" as="geometry" />
        </mxCell>
        <mxCell id="TTgSb8qgRL0c0CYrCtpZ-149" value="" style="ellipse;whiteSpace=wrap;html=1;fillColor=#e1d5e7;strokeColor=#9673a6;" vertex="1" parent="1">
          <mxGeometry x="921" y="377.5" width="30" height="30" as="geometry" />
        </mxCell>
        <mxCell id="TTgSb8qgRL0c0CYrCtpZ-150" style="edgeStyle=none;shape=connector;rounded=0;orthogonalLoop=1;jettySize=auto;html=1;exitX=1;exitY=0.5;exitDx=0;exitDy=0;entryX=0;entryY=0.5;entryDx=0;entryDy=0;labelBackgroundColor=default;strokeColor=default;align=center;verticalAlign=middle;fontFamily=Helvetica;fontSize=11;fontColor=default;endArrow=classic;" edge="1" parent="1" source="TTgSb8qgRL0c0CYrCtpZ-152" target="TTgSb8qgRL0c0CYrCtpZ-167">
          <mxGeometry relative="1" as="geometry" />
        </mxCell>
        <mxCell id="TTgSb8qgRL0c0CYrCtpZ-151" style="edgeStyle=none;shape=connector;rounded=0;orthogonalLoop=1;jettySize=auto;html=1;exitX=1;exitY=0.5;exitDx=0;exitDy=0;entryX=0;entryY=0.5;entryDx=0;entryDy=0;labelBackgroundColor=default;strokeColor=default;align=center;verticalAlign=middle;fontFamily=Helvetica;fontSize=11;fontColor=default;endArrow=classic;" edge="1" parent="1" source="TTgSb8qgRL0c0CYrCtpZ-152" target="TTgSb8qgRL0c0CYrCtpZ-170">
          <mxGeometry relative="1" as="geometry" />
        </mxCell>
        <mxCell id="TTgSb8qgRL0c0CYrCtpZ-152" value="" style="ellipse;whiteSpace=wrap;html=1;fillColor=#fff2cc;strokeColor=#d6b656;" vertex="1" parent="1">
          <mxGeometry x="991" y="211" width="30" height="30" as="geometry" />
        </mxCell>
        <mxCell id="TTgSb8qgRL0c0CYrCtpZ-153" style="edgeStyle=none;shape=connector;rounded=0;orthogonalLoop=1;jettySize=auto;html=1;exitX=1;exitY=0.5;exitDx=0;exitDy=0;entryX=0;entryY=0.5;entryDx=0;entryDy=0;labelBackgroundColor=default;strokeColor=default;align=center;verticalAlign=middle;fontFamily=Helvetica;fontSize=11;fontColor=default;endArrow=classic;" edge="1" parent="1" source="TTgSb8qgRL0c0CYrCtpZ-154" target="TTgSb8qgRL0c0CYrCtpZ-169">
          <mxGeometry relative="1" as="geometry" />
        </mxCell>
        <mxCell id="TTgSb8qgRL0c0CYrCtpZ-154" value="" style="ellipse;whiteSpace=wrap;html=1;fillColor=#e1d5e7;strokeColor=#9673a6;" vertex="1" parent="1">
          <mxGeometry x="991" y="347.5" width="30" height="30" as="geometry" />
        </mxCell>
        <mxCell id="TTgSb8qgRL0c0CYrCtpZ-155" style="edgeStyle=none;shape=connector;rounded=0;orthogonalLoop=1;jettySize=auto;html=1;exitX=1;exitY=0.5;exitDx=0;exitDy=0;entryX=0;entryY=0.5;entryDx=0;entryDy=0;labelBackgroundColor=default;strokeColor=default;align=center;verticalAlign=middle;fontFamily=Helvetica;fontSize=11;fontColor=default;endArrow=classic;" edge="1" parent="1" source="TTgSb8qgRL0c0CYrCtpZ-156" target="TTgSb8qgRL0c0CYrCtpZ-169">
          <mxGeometry relative="1" as="geometry" />
        </mxCell>
        <mxCell id="TTgSb8qgRL0c0CYrCtpZ-156" value="" style="ellipse;whiteSpace=wrap;html=1;fillColor=#e1d5e7;strokeColor=#9673a6;" vertex="1" parent="1">
          <mxGeometry x="991" y="397.5" width="30" height="30" as="geometry" />
        </mxCell>
        <mxCell id="TTgSb8qgRL0c0CYrCtpZ-157" value="" style="endArrow=classic;html=1;rounded=0;exitX=1;exitY=0.5;exitDx=0;exitDy=0;entryX=0;entryY=0.5;entryDx=0;entryDy=0;" edge="1" parent="1" source="TTgSb8qgRL0c0CYrCtpZ-143" target="TTgSb8qgRL0c0CYrCtpZ-163">
          <mxGeometry width="50" height="50" relative="1" as="geometry">
            <mxPoint x="1211" y="582.5" as="sourcePoint" />
            <mxPoint x="1261" y="532.5" as="targetPoint" />
          </mxGeometry>
        </mxCell>
        <mxCell id="TTgSb8qgRL0c0CYrCtpZ-158" value="" style="endArrow=classic;html=1;rounded=0;exitX=1;exitY=0.5;exitDx=0;exitDy=0;entryX=0;entryY=0.5;entryDx=0;entryDy=0;" edge="1" parent="1" source="TTgSb8qgRL0c0CYrCtpZ-146" target="TTgSb8qgRL0c0CYrCtpZ-149">
          <mxGeometry width="50" height="50" relative="1" as="geometry">
            <mxPoint x="1211" y="547.5" as="sourcePoint" />
            <mxPoint x="1261" y="497.5" as="targetPoint" />
          </mxGeometry>
        </mxCell>
        <mxCell id="TTgSb8qgRL0c0CYrCtpZ-159" value="" style="endArrow=classic;html=1;rounded=0;exitX=1;exitY=0.5;exitDx=0;exitDy=0;entryX=0;entryY=0.5;entryDx=0;entryDy=0;" edge="1" parent="1" source="TTgSb8qgRL0c0CYrCtpZ-144" target="TTgSb8qgRL0c0CYrCtpZ-148">
          <mxGeometry width="50" height="50" relative="1" as="geometry">
            <mxPoint x="1211" y="487" as="sourcePoint" />
            <mxPoint x="1261" y="437" as="targetPoint" />
          </mxGeometry>
        </mxCell>
        <mxCell id="TTgSb8qgRL0c0CYrCtpZ-160" value="" style="endArrow=classic;html=1;rounded=0;entryX=0;entryY=0.5;entryDx=0;entryDy=0;exitX=1;exitY=0.5;exitDx=0;exitDy=0;" edge="1" parent="1" source="TTgSb8qgRL0c0CYrCtpZ-163" target="TTgSb8qgRL0c0CYrCtpZ-156">
          <mxGeometry width="50" height="50" relative="1" as="geometry">
            <mxPoint x="951" y="377.5" as="sourcePoint" />
            <mxPoint x="1261" y="532.5" as="targetPoint" />
          </mxGeometry>
        </mxCell>
        <mxCell id="TTgSb8qgRL0c0CYrCtpZ-161" value="" style="endArrow=classic;html=1;rounded=0;exitX=1;exitY=0.5;exitDx=0;exitDy=0;entryX=0;entryY=0.5;entryDx=0;entryDy=0;" edge="1" parent="1" source="TTgSb8qgRL0c0CYrCtpZ-149" target="TTgSb8qgRL0c0CYrCtpZ-154">
          <mxGeometry width="50" height="50" relative="1" as="geometry">
            <mxPoint x="1211" y="547.5" as="sourcePoint" />
            <mxPoint x="1261" y="497.5" as="targetPoint" />
          </mxGeometry>
        </mxCell>
        <mxCell id="TTgSb8qgRL0c0CYrCtpZ-162" style="edgeStyle=none;shape=connector;rounded=0;orthogonalLoop=1;jettySize=auto;html=1;exitX=1;exitY=0.5;exitDx=0;exitDy=0;entryX=0;entryY=0.5;entryDx=0;entryDy=0;labelBackgroundColor=default;strokeColor=default;align=center;verticalAlign=middle;fontFamily=Helvetica;fontSize=11;fontColor=default;endArrow=classic;" edge="1" parent="1" source="TTgSb8qgRL0c0CYrCtpZ-163" target="TTgSb8qgRL0c0CYrCtpZ-168">
          <mxGeometry relative="1" as="geometry" />
        </mxCell>
        <mxCell id="TTgSb8qgRL0c0CYrCtpZ-163" value="" style="ellipse;whiteSpace=wrap;html=1;fillColor=#e1d5e7;strokeColor=#9673a6;" vertex="1" parent="1">
          <mxGeometry x="921" y="312.5" width="30" height="30" as="geometry" />
        </mxCell>
        <mxCell id="TTgSb8qgRL0c0CYrCtpZ-164" value="" style="endArrow=classic;html=1;rounded=0;exitX=1;exitY=0.5;exitDx=0;exitDy=0;entryX=0;entryY=0.5;entryDx=0;entryDy=0;" edge="1" parent="1" source="TTgSb8qgRL0c0CYrCtpZ-146" target="TTgSb8qgRL0c0CYrCtpZ-163">
          <mxGeometry width="50" height="50" relative="1" as="geometry">
            <mxPoint x="891" y="367.5" as="sourcePoint" />
            <mxPoint x="931" y="387.5" as="targetPoint" />
          </mxGeometry>
        </mxCell>
        <mxCell id="TTgSb8qgRL0c0CYrCtpZ-165" style="rounded=0;orthogonalLoop=1;jettySize=auto;html=1;exitX=1;exitY=0.5;exitDx=0;exitDy=0;entryX=0;entryY=0.5;entryDx=0;entryDy=0;" edge="1" parent="1" source="TTgSb8qgRL0c0CYrCtpZ-166" target="TTgSb8qgRL0c0CYrCtpZ-148">
          <mxGeometry relative="1" as="geometry" />
        </mxCell>
        <mxCell id="TTgSb8qgRL0c0CYrCtpZ-166" value="" style="ellipse;whiteSpace=wrap;html=1;fillColor=#fff2cc;strokeColor=#d6b656;" vertex="1" parent="1">
          <mxGeometry x="851" y="197" width="30" height="30" as="geometry" />
        </mxCell>
        <mxCell id="TTgSb8qgRL0c0CYrCtpZ-167" value="" style="ellipse;whiteSpace=wrap;html=1;fillColor=#fff2cc;strokeColor=#d6b656;" vertex="1" parent="1">
          <mxGeometry x="1061" y="201" width="30" height="30" as="geometry" />
        </mxCell>
        <mxCell id="TTgSb8qgRL0c0CYrCtpZ-168" value="" style="ellipse;whiteSpace=wrap;html=1;fillColor=#e1d5e7;strokeColor=#9673a6;" vertex="1" parent="1">
          <mxGeometry x="1061" y="302.5" width="30" height="30" as="geometry" />
        </mxCell>
        <mxCell id="TTgSb8qgRL0c0CYrCtpZ-169" value="" style="ellipse;whiteSpace=wrap;html=1;fillColor=#e1d5e7;strokeColor=#9673a6;" vertex="1" parent="1">
          <mxGeometry x="1061" y="367.5" width="30" height="30" as="geometry" />
        </mxCell>
        <mxCell id="TTgSb8qgRL0c0CYrCtpZ-170" value="" style="ellipse;whiteSpace=wrap;html=1;fillColor=#fff2cc;strokeColor=#d6b656;" vertex="1" parent="1">
          <mxGeometry x="1061" y="251" width="30" height="30" as="geometry" />
        </mxCell>
        <mxCell id="TTgSb8qgRL0c0CYrCtpZ-171" style="edgeStyle=none;shape=connector;rounded=0;orthogonalLoop=1;jettySize=auto;html=1;exitX=1;exitY=0.5;exitDx=0;exitDy=0;labelBackgroundColor=default;strokeColor=default;align=center;verticalAlign=middle;fontFamily=Helvetica;fontSize=11;fontColor=default;endArrow=classic;entryX=0;entryY=0.5;entryDx=0;entryDy=0;" edge="1" parent="1" source="TTgSb8qgRL0c0CYrCtpZ-154" target="TTgSb8qgRL0c0CYrCtpZ-168">
          <mxGeometry relative="1" as="geometry">
            <mxPoint x="1058" y="324.5" as="targetPoint" />
          </mxGeometry>
        </mxCell>
        <mxCell id="TTgSb8qgRL0c0CYrCtpZ-172" value="" style="endArrow=none;dashed=1;html=1;dashPattern=1 3;strokeWidth=2;rounded=0;" edge="1" parent="1">
          <mxGeometry width="50" height="50" relative="1" as="geometry">
            <mxPoint x="991" y="619" as="sourcePoint" />
            <mxPoint x="991" y="559" as="targetPoint" />
          </mxGeometry>
        </mxCell>
      </root>
    </mxGraphModel>
  </diagram>
</mxfile>
